<?xml version="1.0" standalone="no"?>
<!DOCTYPE svg PUBLIC "-//W3C//DTD SVG 1.1//EN" "http://www.w3.org/Graphics/SVG/1.1/DTD/svg11.dtd" >
<svg xmlns="http://www.w3.org/2000/svg">
<metadata>Generated by IcoMoon</metadata>
<defs>
<font id="ipapa-icon" horiz-adv-x="1024">
<font-face units-per-em="1024" ascent="960" descent="-64" />
<missing-glyph horiz-adv-x="1024" />
<glyph unicode="&#x20;" horiz-adv-x="512" d="" />
<glyph unicode="&#xe900;" horiz-adv-x="987" d="M493.726-19.2c-259.2 0-470.077 210.877-470.077 470.077 0 259.194 210.877 470.065 470.077 470.065 79.214 0 157.538-20.078 226.493-58.063 1.475-0.811 2.011-2.67 1.195-4.139-0.811-1.481-2.67-2.005-4.139-1.201-68.066 37.492-145.371 57.307-223.555 57.307-255.842 0-463.982-208.134-463.982-463.97 0-255.842 208.14-463.982 463.982-463.982 255.829 0 463.957 208.14 463.957 463.982 0 104.387-33.835 202.953-97.847 285.038-1.036 1.329-0.798 3.243 0.53 4.279s3.243 0.805 4.279-0.524c64.853-83.17 99.133-183.028 99.133-288.786 0.006-259.212-210.859-470.083-470.046-470.083z" />
<glyph unicode="&#xe901;" horiz-adv-x="987" d="M493.726-19.2c-190.098 0-360.375 113.335-433.78 288.744-0.646 1.548 0.085 3.334 1.64 3.986 1.548 0.646 3.334-0.079 3.986-1.64 72.454-173.129 240.518-284.995 428.154-284.995s355.688 111.872 428.142 284.995c0.646 1.554 2.426 2.286 3.986 1.64 1.554-0.652 2.28-2.438 1.634-3.986-73.399-175.409-243.663-288.744-433.762-288.744z" />
<glyph unicode="&#xe902;" horiz-adv-x="987" d="M794.069 839.089l-27.374-24.101-16.384 18.895 44.538 37.595h26.996v-136.503h-27.77v104.113z" />
<glyph unicode="&#xe903;" horiz-adv-x="987" d="M169.155 599.82c1.585 5.394 3.517 10.405 7.912 14.44 7.454 6.857 21.626 6.796 29.147 0.006 5.772-5.211 7.162-12.014 8.667-18.968 5.748-26.49 11.496-52.968 17.292-79.439 3.724-17.048 7.491-34.085 11.27-51.127 0.177-0.823 0.61-1.603 1.103-2.84h4.12c44.721 0 89.429-0.195 134.144 0.177 8.734 0.067 18.816-6.558 21.333-15.744 3.389-12.288-3.438-24.344-14.805-27.526-4.309-1.207-8.99-1.079-13.763-1.579 3.456-8.204 6.942-16.524 10.441-24.838 6.388-15.061 12.824-30.098 19.2-45.178 5.321-12.587 10.508-25.246 15.896-37.803 3.261-7.625 3.87-15.153-0.719-22.351-3.864-6.046-9.186-9.886-16.847-10.38-13.684-0.878-20.151 6.839-24.527 17.487-5.583 13.538-11.307 27.032-17.012 40.515-5.79 13.726-11.63 27.416-17.432 41.137-2.164 5.15-4.254 10.338-6.461 15.622-21.669 0-43.252 0.030-64.853-0.11-1.012 0-2.469-1.274-2.92-2.298-8.131-18.834-16.165-37.711-24.198-56.576-6.174-14.488-12.325-28.983-18.493-43.477-6.345-14.921-28.136-16.555-37.455-4.291-5.455 7.186-6.15 15.293-2.578 23.686 8.43 19.889 16.866 39.79 25.283 59.697 6.851 16.183 13.702 32.372 20.529 48.573 0.091 0.195-0.049 0.469-0.067 0.646-3.931 0.378-7.881 0.494-11.721 1.17-9.070 1.597-15.177 8.198-17.201 16.89-3.346 14.373-6.4 28.824-9.545 43.258-3.864 17.762-7.643 35.554-11.544 53.327-3.011 13.83-6.12 27.636-9.228 41.442-1.603 7.070-3.322 14.135-4.974 21.193v5.26z" />
<glyph unicode="&#xe904;" horiz-adv-x="987" d="M818.261 590.83c-1.725-7.034-3.59-14.050-5.187-21.12-5.803-25.978-11.52-51.956-17.256-77.946-4.23-19.188-8.613-38.345-12.678-57.563-2.018-9.472-11.788-16.098-21.053-16.5-2.359-0.116-4.736-0.024-7.668-0.024 2.517-5.986 4.907-11.63 7.284-17.286 5.608-13.282 11.221-26.551 16.811-39.826 5.12-12.154 10.197-24.32 15.33-36.462 2.322-5.516 4.955-10.923 7.083-16.506 4.041-10.563 0.585-21.364-8.015-27.441-8.844-6.29-26.496-4.675-32.219 8.259-4.114 9.271-8.107 18.59-12.062 27.928-5.053 11.916-9.972 23.875-15 35.791-5.23 12.386-10.466 24.759-15.86 37.071-0.421 1-1.981 2.152-3.029 2.152-21.474 0.122-42.959 0.091-64.762 0.091-6.376-15.238-12.709-30.543-19.17-45.806-5.845-13.83-11.831-27.618-17.725-41.423-1.646-3.816-3.188-7.668-4.699-11.532-2.956-7.448-7.534-13.47-15.64-15.384-13.507-3.17-24.881 3.852-27.898 17.225-1.566 6.924 1.31 12.696 3.767 18.615 8.003 19.279 16.116 38.522 24.247 57.765 6.321 14.958 12.733 29.873 19.084 44.818 0.25 0.549 0.378 1.146 0.518 1.597-3.931 0.384-7.729 0.646-11.496 1.128-15.159 1.95-22.79 20.791-14.598 33.231 4.602 6.979 10.685 10.289 19.017 10.277 44.593-0.085 89.192-0.030 133.79-0.030h4.742c5.583 25.783 11.057 51.426 16.683 77.038 3.267 14.891 6.772 29.745 10.197 44.611 1.786 7.717 3.334 15.506 5.559 23.101 1.999 6.833 10.703 12.264 17.737 12.727 12.197 0.798 19.651-5.126 24.162-15.823v-12.751z" />
<glyph unicode="&#xe905;" horiz-adv-x="987" d="M516.376 508.379v-187.392c3.749 0 7.339 0.012 10.923 0 11.093 0 19.712-5.979 22.223-16.597 3.572-15.055-6.65-27.648-20.614-27.636-23.485 0.037-46.958 0.232-70.437-0.104-9.015-0.128-18.761 8.576-20.267 17.719-2.883 17.378 10.679 27.191 23.077 26.642 3.371-0.152 6.729-0.024 10.405-0.024v187.392h-4.23c-37.346 0-74.685 0.372-112.018-0.232-10.691-0.171-21.51 9.435-22.321 19.298-0.853 10.307 4.785 21.083 14.958 23.808 2.566 0.689 5.272 1.298 7.912 1.298 92.062 0.055 184.101 0.055 276.151 0.043 10.618 0 19.346-6.095 22.132-16.317 4.285-15.726-8.003-28.075-20.066-27.989-37.717 0.25-75.429 0.091-113.146 0.091h-4.681z" />
<glyph unicode="&#xe906;" horiz-adv-x="987" d="M493.726-19.2c-259.2 0-470.077 210.877-470.077 470.077 0 259.194 210.877 470.065 470.077 470.065 79.214 0 157.538-20.078 226.493-58.063 1.475-0.811 2.011-2.67 1.195-4.139-0.811-1.481-2.67-2.005-4.139-1.201-68.066 37.492-145.371 57.307-223.555 57.307-255.842 0-463.982-208.134-463.982-463.97 0-255.842 208.14-463.982 463.982-463.982 255.829 0 463.957 208.14 463.957 463.982 0 104.387-33.835 202.953-97.847 285.038-1.036 1.329-0.798 3.243 0.53 4.279s3.243 0.805 4.279-0.524c64.853-83.17 99.133-183.028 99.133-288.786 0.006-259.212-210.859-470.083-470.046-470.083z" />
<glyph unicode="&#xe907;" horiz-adv-x="987" d="M493.726-19.2c-190.098 0-360.375 113.335-433.78 288.744-0.646 1.548 0.085 3.334 1.64 3.986 1.548 0.646 3.334-0.079 3.986-1.64 72.454-173.129 240.518-284.995 428.154-284.995s355.688 111.872 428.142 284.995c0.646 1.554 2.426 2.286 3.986 1.64 1.554-0.652 2.28-2.438 1.634-3.986-73.399-175.409-243.663-288.744-433.762-288.744z" />
<glyph unicode="&#xe908;" horiz-adv-x="987" d="M747.995 765.629l53.016 47.622c2.7 2.438 5.4 5.205 8.101 8.29 2.694 3.084 4.047 6.68 4.047 10.795 0 4.626-1.67 8.253-5.010 10.892-3.346 2.633-7.259 3.95-11.764 3.95-5.4 0-9.606-1.67-12.629-5.010-3.017-3.346-4.718-7.454-5.108-12.337l-28.916 2.121c0.384 7.070 1.859 13.208 4.437 18.414 2.566 5.205 5.973 9.545 10.216 13.013s9.222 6.071 14.946 7.808c5.717 1.737 11.916 2.603 18.603 2.603 6.174 0 11.953-0.872 17.353-2.603s10.088-4.309 14.080-7.71c3.98-3.407 7.101-7.68 9.35-12.824 2.243-5.144 3.371-11.118 3.371-17.926 0-4.37-0.445-8.326-1.347-11.855-0.902-3.541-2.158-6.747-3.761-9.643-1.609-2.895-3.499-5.565-5.687-8.003-2.188-2.444-4.565-4.821-7.138-7.131l-41.454-35.669h60.544v-25.448h-95.244v30.653z" />
<glyph unicode="&#xe909;" horiz-adv-x="987" d="M317.056 525.385v19.938c0.25 0.402 0.683 0.786 0.756 1.213 1.359 9.557 2.28 19.194 4.102 28.642 3.596 18.718 10.971 36.023 20.98 52.181 9.435 15.238 20.62 28.977 34.213 40.814 9.74 8.448 20.072 15.896 31.275 22.095 23.253 12.873 48.354 20.066 74.795 21.522 12.331 0.689 24.923 0.152 37.12-1.713 11.965-1.829 23.808-5.339 35.285-9.332 30.056-10.447 54.729-28.928 75.008-53.181 11.593-13.867 20.584-29.483 27.288-46.293 5.528-13.812 9.57-28.038 10.947-42.935 0.305-3.285 1.036-6.552 1.56-9.819v-25.527c-0.805-5.346-1.646-10.691-2.389-16.043-2.249-16.226-7.308-31.592-14.153-46.409-6.936-15.013-16.677-28.166-26.715-41.253-18.2-23.765-35.346-48.323-50.158-74.423-1.091-1.938-2.517-3.054-5.248-3.023-18.085 0.213-36.163 0.11-54.229 0.11-33.908 0-67.785-0.024-101.675 0.067-1.432 0-3.432 0.61-4.169 1.652-2.517 3.462-4.657 7.211-6.814 10.917-13.086 22.412-27.995 43.63-43.928 64.049-12.422 15.951-23.57 32.475-31.147 51.261-5.73 14.165-9.539 28.837-11.124 44.062-0.421 3.828-1.048 7.619-1.579 11.429zM487.223 684.952c-12.251 0.146-25.752-2.761-38.942-7.119-23.808-7.881-44.373-20.87-61.635-39.266-11.739-12.526-21.205-26.398-28.117-42.094-8.296-18.871-12.587-38.656-12.635-59.215-0.024-9.1 6.333-15.726 15.543-17.347 5.711-1.012 16.079 3.383 17.865 12.19 0.957 4.712 1.286 9.582 1.512 14.385 0.634 12.782 3.785 24.997 8.984 36.553 8.137 18.121 20.078 33.347 36.139 45.257 18.962 14.068 40.113 21.766 63.817 22.37 3.48 0.085 7.052 0.561 10.35 1.634 7.107 2.304 10.557 7.881 11.045 15.055 0.372 5.474-1.969 9.905-6.174 13.8-4.834 4.48-10.423 3.59-17.749 3.797z" />
<glyph unicode="&#xe90a;" horiz-adv-x="987" d="M419.578 255.616h148.675c-0.11-7.314-1.774-14.117-5.096-20.315-6.132-11.422-15.842-18.359-28.416-21.437-6.357-1.56-6.784-1.682-6.223-8.509 0.811-10.094-7.040-19.188-14.44-20.882-1.268-0.293-2.578-0.433-3.883-0.433-10.082-0.037-20.194 0.286-30.275-0.098-12.221-0.469-20.803 8.631-20.901 20.827-0.061 7.771-0.049 7.698-7.253 9.539-17.542 4.462-28.209 17.115-31.762 33.871-0.475 2.255-0.286 4.663-0.427 7.436z" />
<glyph unicode="&#xe90b;" horiz-adv-x="987" d="M493.598 317.214c22.327 0 44.648 0 66.974 0 8.978 0 15.336-7.010 16.384-15.458 1.189-9.527-5.431-18.414-14.068-19.608-3.371-0.469-6.772-0.786-10.179-0.786-40.795-0.061-81.615-0.073-122.398-0.012-7.845 0.012-14.196 2.871-17.938 10.277-5.815 11.514 2.676 25.96 15.433 25.71 21.912-0.439 43.855-0.122 65.792-0.122z" />
<glyph unicode="&#xe90c;" horiz-adv-x="987" d="M493.726-19.2c-259.2 0-470.077 210.877-470.077 470.077 0 259.194 210.877 470.065 470.077 470.065 79.214 0 157.538-20.078 226.493-58.063 1.475-0.811 2.011-2.67 1.195-4.139-0.811-1.481-2.67-2.005-4.139-1.201-68.066 37.492-145.371 57.307-223.555 57.307-255.842 0-463.982-208.134-463.982-463.97 0-255.842 208.14-463.982 463.982-463.982 255.829 0 463.957 208.14 463.957 463.982 0 104.387-33.835 202.953-97.847 285.038-1.036 1.329-0.798 3.243 0.53 4.279s3.243 0.805 4.279-0.524c64.853-83.17 99.133-183.028 99.133-288.786 0.006-259.212-210.859-470.083-470.046-470.083z" />
<glyph unicode="&#xe90d;" horiz-adv-x="987" d="M493.726-19.2c-190.098 0-360.375 113.335-433.78 288.744-0.646 1.548 0.085 3.334 1.64 3.986 1.548 0.646 3.334-0.079 3.986-1.64 72.454-173.129 240.518-284.995 428.154-284.995s355.688 111.872 428.142 284.995c0.646 1.554 2.426 2.286 3.986 1.64 1.554-0.652 2.28-2.438 1.634-3.986-73.399-175.409-243.663-288.744-433.762-288.744z" />
<glyph unicode="&#xe90e;" horiz-adv-x="987" d="M781.282 820.206h9.734c2.779 0 5.492 0.201 8.149 0.597 2.645 0.396 5.065 1.158 7.247 2.286s3.938 2.712 5.26 4.766c1.329 2.054 1.987 4.736 1.987 8.046 0 4.236-1.688 7.747-5.065 10.533s-7.515 4.175-12.416 4.175c-4.638 0-8.478-1.262-11.526-3.779s-5.035-5.632-5.961-9.338l-32.786 6.754c1.591 6.089 3.974 11.288 7.156 15.598 3.176 4.303 6.955 7.778 11.319 10.429 4.376 2.645 9.246 4.596 14.604 5.858 5.364 1.256 11.026 1.89 16.987 1.89 6.223 0 12.215-0.762 17.975-2.286s10.825-3.907 15.202-7.15c4.37-3.249 7.845-7.32 10.429-12.215 2.584-4.901 3.877-10.728 3.877-17.487 0-7.814-2.054-14.501-6.162-20.066s-10.063-9.143-17.883-10.728v-0.597c4.236-0.53 7.979-1.786 11.227-3.779 3.243-1.987 5.992-4.437 8.247-7.351s3.974-6.223 5.169-9.929c1.189-3.712 1.786-7.619 1.786-11.721 0-7.022-1.359-13.184-4.072-18.475-2.712-5.303-6.357-9.704-10.929-13.208-4.565-3.511-9.935-6.126-16.091-7.851-6.162-1.719-12.684-2.584-19.572-2.584-12.581 0-23.412 2.914-32.482 8.741-9.076 5.827-15.074 15.031-17.981 27.618l31.39 7.351c1.061-5.035 3.206-9.009 6.461-11.922 3.243-2.92 8.040-4.37 14.397-4.37 6.485 0 11.294 1.688 14.403 5.065 3.115 3.377 4.675 7.717 4.675 13.013 0 3.974-0.835 7.052-2.481 9.24-1.658 2.182-3.81 3.81-6.461 4.87-2.658 1.054-5.632 1.688-8.942 1.89-3.316 0.201-6.626 0.299-9.935 0.299h-6.955v25.819z" />
<glyph unicode="&#xe90f;" horiz-adv-x="987" d="M625.518 448h-10.978v10.99c0 6.071-4.925 10.971-10.996 10.971h-285.58c-6.034 0-10.971-4.907-10.971-10.971v-219.678c0-30.275 24.631-54.924 54.906-54.924h197.717c30.299 0 54.93 24.649 54.93 54.924v54.918h10.978c42.423 0 76.885 34.462 76.885 76.891-0.006 42.386-34.469 76.879-76.891 76.879zM625.518 316.19h-10.978v109.842h10.978c30.299 0 54.918-24.655 54.918-54.912 0-30.275-24.619-54.93-54.918-54.93zM537.655 491.941h43.941c4.163 0 8.003 2.371 9.85 6.15l33.445 68.181c22.138 3.17 38.754 22.863 42.136 51.291 4.285 36.029-13.745 80.28-63.531 92.318-4.413 1.048-8.954-0.683-11.544-4.322-2.597-3.694-2.67-8.564-0.201-12.367 11.581-17.719 4.59-28.172-7.784-43.788-4.706-5.943-9.204-11.63-11.874-18.011-5.163-12.184-5.437-25.070-0.774-36.169 2.036-4.864 5.15-9.24 8.887-13.154l-43.416-61.282-2.743-3.938-5.388-7.595c-2.353-3.371-2.682-7.753-0.768-11.386 1.92-3.633 5.644-5.931 9.765-5.931zM592.323 622.854c1.542 3.675 5.102 8.149 8.875 12.879 8.35 10.539 19.682 24.899 18.426 43.544 20.614-14.056 28.062-38.4 25.6-59.093-1.81-15.025-9.826-32.555-26.539-32.555h-0.018l-18.737 6.217c-3.858 2.682-6.741 5.998-8.375 9.886-2.341 5.705-2.133 12.306 0.768 19.121zM301.672 622.171c-3.669 2.213-8.265 2.078-11.831-0.323-3.535-2.438-5.37-6.674-4.675-10.892l10.246-61.336 53.205 44.386-46.946 28.166zM339.938 491.941h66.152c5.864 0 10.539 4.626 10.843 10.429 0.311-5.803 4.992-10.429 10.874-10.429h87.875c6.059 0 10.984 4.894 10.984 10.984v10.971h-27.465c-6.040 0-10.978 4.913-10.978 10.99 0 6.071 4.937 10.99 10.978 10.99h27.465v21.961h-54.924c-6.040 0-10.99 4.901-10.99 10.99 0 6.059 4.949 10.978 10.99 10.978h54.924v21.967h-27.465c-6.040 0-10.978 4.894-10.978 10.99 0 6.059 4.937 10.978 10.978 10.978h27.465v21.967h-54.924c-6.040 0-10.99 4.907-10.99 10.984 0 6.071 4.949 10.99 10.99 10.99h54.924v32.945c0 6.059-4.925 10.978-10.984 10.978h-87.869c-6.034 0-10.984-4.925-10.984-10.978v-196.651c-0.256 2.633-1.31 5.077-3.133 6.821l-48.707 68.236-58.99-49.146 25.179-33.566c2.048-2.755 5.309-4.376 8.759-4.376z" />
<glyph unicode="&#xe910;" horiz-adv-x="987" d="M955.685 444.977c-1.682 0-3.048 1.365-3.048 3.048 0 103.229-33.469 200.722-96.786 281.941-1.036 1.329-0.798 3.243 0.53 4.279 1.329 1.030 3.237 0.798 4.279-0.53 64.158-82.304 98.072-181.090 98.072-285.69 0-1.682-1.365-3.048-3.048-3.048z" />
<glyph unicode="&#xe911;" horiz-adv-x="987" d="M31.738 444.977c-1.682 0-3.048 1.365-3.048 3.048 0 256.414 208.61 465.024 465.018 465.024 78.36 0 155.849-19.87 224.091-57.454 1.475-0.811 2.011-2.67 1.195-4.139-0.811-1.475-2.67-2.011-4.139-1.201-67.34 37.090-143.811 56.698-221.147 56.698-253.056 0-458.923-205.873-458.923-458.929 0-1.682-1.365-3.048-3.048-3.048z" />
<glyph unicode="&#xe912;" horiz-adv-x="987" d="M493.16-17.018c-188.062 0-356.504 112.122-429.129 285.647-0.646 1.548 0.085 3.334 1.64 3.986 1.542 0.64 3.334-0.085 3.986-1.64 71.668-171.246 237.903-281.905 423.503-281.905 185.582 0 351.817 110.653 423.497 281.905 0.646 1.554 2.432 2.28 3.986 1.64 1.554-0.652 2.28-2.438 1.634-3.986-72.625-173.519-241.067-285.647-429.117-285.647z" />
<glyph unicode="&#xe913;" horiz-adv-x="987" d="M797.41 763.185h-61.391v25.033l57.417 87.418h32.585v-87.418h18.085v-25.033h-18.085v-28.209h-28.605v28.209zM797.41 836.699h-0.396l-31.189-48.475h31.592v48.475z" />
<glyph unicode="&#xe914;" horiz-adv-x="987" d="M319.366 456.491c0.878 2.627 1.384 5.413 2.67 7.808 4.236 7.875 10.874 12.367 19.938 12.386 69.534 0.055 139.057 0.043 208.585 0.012 10.789 0 20.779-9.045 21.736-20.047 0.085-0.957 0.323-1.908 0.549-3.115h-160.872v-22.723h160.744v-2.517c0-45.013 0.030-90.027-0.043-135.034 0-10.429-6.266-19.56-16.451-22.583-1.597-0.469-3.304-0.805-4.962-0.805-70.077-0.043-140.19-0.043-210.298-0.043-5.016 0-9.301 1.95-13.093 5.071-4.681 3.877-7.54 8.795-8.168 14.915-0.018 0.091-0.226 0.152-0.335 0.232v166.443zM388.657 361.435c-12.587 0.256-22.729-10.594-22.814-22.156-0.116-13.531 10.234-23.387 22.729-23.272 12.806 0.122 22.565 9.533 22.711 22.662 0.165 12.843-10.283 22.741-22.626 22.766z" />
<glyph unicode="&#xe915;" horiz-adv-x="987" d="M687.543 267.672c-0.579-2.030-0.994-4.145-1.774-6.107-1.926-4.785-7.113-5.827-11.471-4.267-4.712 1.676-8.174 5.15-12.050 7.997-9.594 7.016-19.054 14.208-28.556 21.321-7.101 5.327-14.379 10.405-21.211 16.024-7.528 6.211-12.282 14.434-15.269 23.692-1.426 4.474-2.17 9.015-2.158 13.714 0.043 21.218 0.226 42.429-0.073 63.634-0.152 11.837 3.322 22.278 9.899 31.884 3.56 5.175 8.344 9.021 13.282 12.721 8.954 6.699 17.89 13.397 26.843 20.078 8.344 6.211 16.683 12.422 25.058 18.584 2.956 2.182 6.327 3.176 9.996 2.633 2.822-0.427 4.681-2.328 5.73-4.821 0.798-1.877 1.176-3.931 1.749-5.9v-211.188z" />
<glyph unicode="&#xe916;" horiz-adv-x="987" d="M319.366 549.394c0.579 2.767 1.030 5.577 1.743 8.326 1.579 6.205 4.486 11.746 8.485 16.762 4.346 5.474 9.673 9.722 15.939 12.709 5.9 2.816 12.13 4.236 18.725 4.407 7.869 0.201 15.348-1.268 22.266-4.852 11.038-5.717 18.749-14.476 22.778-26.338 1.853-5.461 2.81-11.106 2.493-16.841-0.579-10.082-3.858-19.176-10.277-27.118-7.18-8.887-16.402-14.513-27.52-16.378-13.434-2.255-25.984 0.427-36.913 9.021-9.563 7.515-15.067 17.451-17.28 29.318-0.195 1.073-0.293 2.164-0.451 3.237v7.747z" />
<glyph unicode="&#xe917;" horiz-adv-x="987" d="M503.381 499.505c-31.031-0.774-59.24 25.734-57.576 60.459 1.408 29.147 25.167 55.107 58.539 54.729 30.513-0.354 57.832-24.923 56.698-60.215-0.945-29.141-25.307-55.479-57.661-54.973z" />
<glyph unicode="&#xe918;" horiz-adv-x="987" d="M955.685 444.977c-1.682 0-3.048 1.365-3.048 3.048 0 103.229-33.469 200.722-96.786 281.941-1.036 1.329-0.798 3.243 0.53 4.279 1.329 1.030 3.237 0.798 4.279-0.53 64.158-82.304 98.072-181.090 98.072-285.69 0-1.682-1.365-3.048-3.048-3.048z" />
<glyph unicode="&#xe919;" horiz-adv-x="987" d="M31.738 444.977c-1.682 0-3.048 1.365-3.048 3.048 0 256.414 208.61 465.024 465.018 465.024 78.36 0 155.849-19.87 224.091-57.454 1.475-0.811 2.011-2.67 1.195-4.139-0.811-1.475-2.67-2.011-4.139-1.201-67.34 37.090-143.811 56.698-221.147 56.698-253.056 0-458.923-205.873-458.923-458.929 0-1.682-1.365-3.048-3.048-3.048z" />
<glyph unicode="&#xe91a;" horiz-adv-x="987" d="M493.16-17.018c-188.062 0-356.504 112.122-429.129 285.647-0.646 1.548 0.085 3.334 1.64 3.986 1.542 0.64 3.334-0.085 3.986-1.64 71.668-171.246 237.903-281.905 423.503-281.905 185.582 0 351.817 110.653 423.497 281.905 0.646 1.554 2.432 2.28 3.986 1.64 1.554-0.652 2.28-2.438 1.634-3.986-72.625-173.519-241.067-285.647-429.117-285.647z" />
<glyph unicode="&#xe91b;" horiz-adv-x="987" d="M838.729 849.414h-55.826l-0.597-21.656c3.048 1.061 7.223 1.591 12.52 1.591 7.15 0 13.708-1.061 19.669-3.176 5.967-2.121 11.093-5.199 15.397-9.24s7.65-8.942 10.033-14.702c2.383-5.76 3.572-12.221 3.572-19.371 0-7.948-1.359-15.031-4.072-21.26s-6.461-11.49-11.227-15.793c-4.766-4.309-10.429-7.582-16.981-9.832-6.558-2.249-13.678-3.377-21.364-3.377-12.184 0-22.382 2.981-30.598 8.942s-13.842 14.97-16.89 27.020l31.189 7.15c0.798-5.035 2.92-9.106 6.357-12.221 3.444-3.115 7.747-4.669 12.916-4.669 6.357 0 11.422 1.987 15.195 5.961 3.779 3.974 5.669 9.009 5.669 15.104 0 4.632-0.963 8.442-2.883 11.422s-4.443 5.364-7.552 7.15c-3.115 1.786-6.589 3.011-10.429 3.675-3.846 0.664-7.686 0.994-11.526 0.994-4.901 0-9.832-0.463-14.805-1.39-4.962-0.926-9.771-2.182-14.397-3.773l1.591 77.684h85.029v-26.234z" />
<glyph unicode="&#xe91c;" horiz-adv-x="987" d="M303.506 686.312v-476.623c0-10.502 8.546-19.035 19.035-19.035h342.333c10.49 0 19.048 8.533 19.048 19.035v476.623c0 10.49-8.558 19.035-19.048 19.035h-342.333c-10.539 0-19.035-8.546-19.035-19.035zM453.266 233.24h-89.533c-10.49 0-19.035 8.503-19.035 19.005v82.432c0 10.496 8.546 19.023 19.035 19.023h89.533c10.49 0 19.035-8.527 19.035-19.023v-82.432c0-10.502-8.546-19.005-19.035-19.005zM453.266 390.961h-89.533c-10.49 0-19.035 8.491-19.035 18.993v82.414c0 10.502 8.546 19.048 19.035 19.048h89.533c10.49 0 19.035-8.546 19.035-19.048v-82.414c0-10.502-8.546-18.993-19.035-18.993zM620.532 233.24h-89.576c-10.502 0-18.999 8.503-18.999 19.005v82.432c0 10.496 8.503 19.023 18.999 19.023h89.57c10.514 0 18.999-8.527 18.999-19.023v-82.432c0.006-10.502-8.485-19.005-18.993-19.005zM620.532 390.961h-89.576c-10.502 0-18.999 8.491-18.999 18.993v82.414c0 10.502 8.503 19.048 18.999 19.048h89.57c10.514 0 18.999-8.546 18.999-19.048v-82.414c0.006-10.502-8.485-18.993-18.993-18.993zM620.532 562.115h-256.798c-10.49 0-19.035 8.552-19.035 19.048v57.082c0 10.496 8.546 18.987 19.035 18.987h256.798c10.514 0 18.999-8.491 18.999-18.987v-57.082c0-10.496-8.491-19.048-18.999-19.048z" />
<glyph unicode="&#xe91d;" horiz-adv-x="987" d="M428.373 460.379c-5.108 0-9.216 3.901-9.216 8.728 0 4.791-4.76 8.734-10.654 8.734s-10.63-3.944-10.63-8.734c0-4.827-4.145-8.728-9.265-8.728-5.059 0-9.179-4.133-9.179-9.204 0-5.096 4.12-9.186 9.179-9.186 5.12 0 9.265-3.944 9.265-8.728 0-4.852 4.736-8.753 10.63-8.753s10.654 3.901 10.654 8.753c0 4.785 4.108 8.728 9.216 8.728 5.096 0 9.192 4.090 9.192 9.186 0 5.071-4.133 9.204-9.192 9.204z" />
<glyph unicode="&#xe91e;" horiz-adv-x="987" d="M407.613 314.002c-3.584-3.572-9.283-3.712-12.678-0.323-3.395 3.383-9.502 2.786-13.702-1.347-4.181-4.181-4.785-10.307-1.335-13.745 3.383-3.395 3.237-9.051-0.36-12.672-3.596-3.584-3.596-9.429 0-13.007 3.547-3.572 9.405-3.572 12.977 0 3.621 3.633 9.295 3.767 12.678 0.378 3.438-3.444 9.57-2.798 13.702 1.347 4.194 4.169 4.785 10.307 1.396 13.69-3.383 3.438-3.249 9.112 0.347 12.684 3.596 3.614 3.596 9.423 0 12.995-3.596 3.627-9.405 3.627-13.026 0z" />
<glyph unicode="&#xe91f;" horiz-adv-x="987" d="M605.080 441.667h-58.642c-5.26 0-9.527 4.273-9.527 9.509 0 5.254 4.261 9.527 9.527 9.527h58.642c5.248 0 9.515-4.273 9.515-9.527-0.006-5.236-4.267-9.509-9.515-9.509z" />
<glyph unicode="&#xe920;" horiz-adv-x="987" d="M605.080 303h-58.642c-5.26 0-9.527 4.212-9.527 9.46s4.261 9.527 9.527 9.527h58.642c5.248 0 9.515-4.279 9.515-9.527-0.006-5.242-4.267-9.46-9.515-9.46z" />
<glyph unicode="&#xe921;" horiz-adv-x="987" d="M605.080 266.405h-58.642c-5.26 0-9.527 4.285-9.527 9.521 0 5.248 4.261 9.527 9.527 9.527h58.642c5.248 0 9.515-4.279 9.515-9.527-0.006-5.242-4.267-9.521-9.515-9.521z" />
<glyph unicode="&#xe922;" horiz-adv-x="987" d="M373.016 581.163c-5.248 0-9.515 4.267-9.515 9.527v44.379c0 5.26 4.261 9.478 9.515 9.478 5.26 0 9.527-4.212 9.527-9.478v-44.379c0-5.26-4.261-9.527-9.527-9.527z" />
<glyph unicode="&#xe923;" horiz-adv-x="987" d="M955.685 444.977c-1.682 0-3.048 1.365-3.048 3.048 0 103.229-33.469 200.722-96.786 281.941-1.036 1.329-0.798 3.243 0.53 4.279 1.329 1.030 3.237 0.798 4.279-0.53 64.158-82.304 98.072-181.090 98.072-285.69 0-1.682-1.365-3.048-3.048-3.048z" />
<glyph unicode="&#xe924;" horiz-adv-x="987" d="M31.738 444.977c-1.682 0-3.048 1.365-3.048 3.048 0 256.414 208.61 465.024 465.018 465.024 78.36 0 155.849-19.87 224.091-57.454 1.475-0.811 2.011-2.67 1.195-4.139-0.811-1.475-2.67-2.011-4.139-1.201-67.34 37.090-143.811 56.698-221.147 56.698-253.056 0-458.923-205.873-458.923-458.929 0-1.682-1.365-3.048-3.048-3.048z" />
<glyph unicode="&#xe925;" horiz-adv-x="987" d="M493.16-17.018c-188.062 0-356.504 112.122-429.129 285.647-0.646 1.548 0.085 3.334 1.64 3.986 1.542 0.64 3.334-0.085 3.986-1.64 71.668-171.246 237.903-281.905 423.503-281.905 185.582 0 351.817 110.653 423.497 281.905 0.646 1.554 2.432 2.28 3.986 1.64 1.554-0.652 2.28-2.438 1.634-3.986-72.625-173.519-241.067-285.647-429.117-285.647z" />
<glyph unicode="&#xe926;" horiz-adv-x="987" d="M793.033 825.374c1.591 0.396 3.176 0.725 4.773 0.994 1.591 0.262 3.243 0.396 4.962 0.396 6.619 0 12.648-1.189 18.078-3.572 5.431-2.389 10.063-5.632 13.909-9.74 3.84-4.102 6.821-8.972 8.942-14.604 2.115-5.632 3.176-11.624 3.176-17.981 0-7.284-1.365-13.879-4.072-19.773-2.718-5.894-6.43-10.959-11.13-15.195-4.699-4.242-10.264-7.522-16.683-9.838-6.43-2.316-13.282-3.474-20.565-3.474-7.418 0-14.306 1.158-20.663 3.474s-11.892 5.595-16.591 9.838c-4.699 4.236-8.418 9.301-11.124 15.195-2.718 5.894-4.078 12.483-4.078 19.773 0 5.029 0.463 9.637 1.396 13.806 0.92 4.175 2.152 8.113 3.675 11.819s3.31 7.253 5.37 10.63c2.048 3.377 4.2 6.857 6.455 10.429l30.799 48.079h36.358l-32.987-50.255zM817.079 782.062c0 6.357-2.085 11.624-6.254 15.793s-9.637 6.26-16.39 6.26-12.221-2.085-16.39-6.26-6.254-9.435-6.254-15.793 2.085-11.624 6.254-15.793 9.637-6.26 16.39-6.26 12.221 2.085 16.39 6.26 6.254 9.435 6.254 15.793z" />
<glyph unicode="&#xe927;" horiz-adv-x="987" d="M650.082 541.708c-12.782 42.459-46.586 85.742-89.442 108.002v-111.72c-0.414-4.535-1.237-8.649-3.31-12.776-5.358-10.307-16.085-17.731-28.44-17.731h-51.938c-11.55 0-21.851 6.181-27.215 15.262-2.456 3.7-3.694 7.826-4.529 12.361-0.402 1.646-0.402 2.877-0.402 4.529v110.488c-42.886-22.674-76.672-65.957-89.454-108.416l-2.877-9.076h-23.497v-51.517h347.185v51.517h-23.18l-2.901 9.076z" />
<glyph unicode="&#xe928;" horiz-adv-x="987" d="M476.806 520.271h51.529c7.412 0 13.592 4.126 16.896 10.301 1.652 2.883 2.469 5.766 2.469 9.064v135.631c0 3.291-0.823 6.181-1.652 9.064-3.694 9.484-13.184 16.494-23.912 16.494h-45.336c-9.893 0-18.146-7.418-18.956-16.902 0-0.823-0.408-1.646-0.408-2.469v-141.812c0-4.108 1.225-7.826 3.298-11.13 3.7-4.955 9.478-8.241 16.073-8.241z" />
<glyph unicode="&#xe929;" horiz-adv-x="987" d="M688.293 323.029l-11.404 11.416 0.024 0.024c9.484 9.478 9.484 24.844 0 34.328l-76.099 76.093c-9.484 9.478-24.844 9.478-34.328 0l-12.19-12.184c-9.472-9.49-9.472-24.85 0-34.328l76.099-76.093c9.478-9.478 24.838-9.478 34.328 0l0.189 0.189 5.437-5.425-24.862-24.862-87.223 44.422c-3.261 1.658-7.229 1.030-9.819-1.56l-19.554-19.554c-10.472 5.413-23.68 3.736-32.457-5.065l-67.73-67.73c-10.874-10.88-10.874-28.495 0-39.369 10.856-10.868 28.489-10.868 39.357 0l67.736 67.749c8.777 8.789 10.472 21.986 5.053 32.457l15.214 15.22 87.223-44.422c3.273-1.652 7.229-1.042 9.819 1.56l35.182 35.182c1.597 1.585 2.475 3.736 2.475 5.973 0.006 2.243-0.878 4.401-2.469 5.979z" />
<glyph unicode="&#xe92a;" horiz-adv-x="987" d="M528.469 422.272l-32.433-32.951-28.69 9.996-10.441 28.514 32.433 32.957c-21.498 7.003-46.080 1.871-63.019-15.336-16.634-16.902-21.516-40.966-14.757-62.080-0.878-0.707-1.731-1.463-2.548-2.286l-104.076-105.722c-11.16-11.325-11.014-29.544 0.311-40.698 11.331-11.154 29.556-11.002 40.698 0.311l104.082 105.728c0.817 0.829 1.566 1.694 2.249 2.597 21.224-6.443 45.196-1.189 61.842 15.714 16.951 17.213 21.687 41.868 14.348 63.256z" />
<glyph unicode="&#xe92b;" glyph-name="build" d="M714.099 569.126c-16.512 54.861-60.211 110.81-115.61 139.571v-144.371c-0.525-5.862-1.6-11.187-4.262-16.525-6.925-13.312-20.787-22.912-36.762-22.912h-67.123c-14.925 0-28.237 7.987-35.162 19.712-3.2 4.8-4.8 10.125-5.862 15.987-0.538 2.138-0.538 3.738-0.538 5.862v142.784c-55.411-29.299-99.085-85.248-115.597-140.109l-3.738-11.725h-30.374v-66.598h448.755v66.598h-29.978l-3.75 11.725zM490.138 541.414h66.598c9.587 0 17.574 5.325 21.837 13.312 2.138 3.738 3.2 7.462 3.2 11.725v175.283c0 4.262-1.062 7.987-2.125 11.725-4.8 12.25-17.050 21.299-30.912 21.299h-58.598c-12.787 0-23.437-9.587-24.499-21.837 0-1.075-0.538-2.138-0.538-3.2v-183.27c0-5.325 1.6-10.125 4.262-14.387 4.8-6.4 12.25-10.65 20.774-10.65v0zM763.482 286.477l-14.746 14.758 0.038 0.026c12.25 12.25 12.25 32.115 0 44.365l-98.355 98.355c-12.25 12.25-32.128 12.25-44.378 0l-15.731-15.731c-12.25-12.262-12.25-32.115 0-44.365l98.355-98.355c12.25-12.262 32.102-12.262 44.365 0l0.256 0.256 7.014-7.027-32.128-32.128-112.73 57.395c-4.237 2.15-9.344 1.331-12.698-1.997l-25.28-25.28c-13.542 6.989-30.605 4.813-41.946-6.541l-87.552-87.552c-14.054-14.067-14.054-36.838 0-50.893 14.042-14.054 36.826-14.054 50.88 0l87.552 87.578c11.354 11.341 13.53 28.403 6.528 41.933l19.661 19.661 112.742-57.395c4.224-2.15 9.344-1.344 12.698 1.997l45.478 45.478c2.048 2.048 3.2 4.838 3.2 7.731-0.026 2.906-1.178 5.696-3.226 7.731v0zM556.915 414.758l-41.92-42.586-37.069 12.915-13.517 36.864 41.92 42.586c-27.789 9.050-59.546 2.419-81.459-19.84-21.491-21.824-27.802-52.941-19.046-80.23-1.139-0.909-2.253-1.894-3.302-2.957l-134.528-136.64c-14.413-14.656-14.221-38.182 0.41-52.595s38.17-14.221 52.595 0.397l134.528 136.653c1.050 1.075 2.010 2.202 2.918 3.354 27.43-8.32 58.406-1.523 79.91 20.326 21.914 22.246 28.058 54.093 18.56 81.754v0z" />
<glyph unicode="&#xe92c;" glyph-name="building" d="M675.622 857.17l-315.822 0.43c-7.414 0.020-13.421-5.994-13.421-13.414v-102.769l342.61-111.398v213.75c0 7.393-6.001 13.394-13.367 13.401v0zM504.224 784.978c0-7.4-6.001-13.421-13.414-13.421h-53.63c-7.407 0-13.414 6.021-13.414 13.421v10.732c0 7.414 6.007 13.414 13.414 13.414h53.63c7.414 0 13.414-6.001 13.414-13.414v-10.732zM611.587 784.978c0-7.4-6.014-13.421-13.401-13.421h-53.63c-7.421 0-13.428 6.021-13.428 13.421v10.732c0 7.414 6.007 13.414 13.428 13.414h53.63c7.386 0 13.401-6.001 13.401-13.414v-10.732zM731.218 100.338v476.768c0 5.106-2.895 9.762-7.427 12.015l-411.703 132.581c-8.909 4.41-19.354-2.075-19.354-12.015v0-609.348h-82.152c-7.421 0-13.414-6.028-13.414-13.394v-35.11c0-7.4 5.994-13.442 13.414-13.442h602.856c7.4 0 13.401 6.042 13.401 13.442v35.11c0 7.366-6.001 13.394-13.401 13.394h-82.22zM579.516 527.319c0 7.4 6.001 13.421 13.401 13.421h53.651c7.441 0 13.401-6.021 13.401-13.421v-10.732c0-7.4-5.96-13.401-13.401-13.401h-53.651c-7.4 0-13.401 6.001-13.401 13.401v10.732zM579.516 398.582c0 7.434 6.001 13.394 13.401 13.394h53.651c7.441 0 13.401-5.96 13.401-13.394v-10.725c0-7.421-5.96-13.394-13.401-13.394h-53.651c-7.4 0-13.401 5.973-13.401 13.394v10.725zM579.516 269.824c0 7.434 6.001 13.435 13.401 13.435h53.651c7.441 0 13.401-6.001 13.401-13.435v-10.704c0-7.414-5.96-13.401-13.401-13.401h-53.651c-7.4 0-13.401 5.987-13.401 13.401v10.704zM471.75 527.319c0 7.4 6.001 13.421 13.408 13.421h53.651c7.386 0 13.414-6.021 13.414-13.421v-10.732c0-7.4-6.028-13.401-13.414-13.401h-53.651c-7.407 0-13.408 6.001-13.408 13.401v10.732zM471.75 398.582c0 7.434 6.001 13.394 13.408 13.394h53.651c7.386 0 13.414-5.96 13.414-13.394v-10.725c0-7.421-6.028-13.394-13.414-13.394h-53.651c-7.407 0-13.408 5.973-13.408 13.394v10.725zM471.75 269.824c0 7.434 6.001 13.435 13.408 13.435h53.651c7.386 0 13.414-6.001 13.414-13.435v-10.704c0-7.414-6.028-13.401-13.414-13.401h-53.651c-7.407 0-13.408 5.987-13.408 13.401v10.704zM448.997 158.952c0 7.407 6.001 13.442 13.414 13.442h99.13c7.448 0 13.401-6.035 13.401-13.442v-58.614h-125.945v58.614zM363.984 527.319c0 7.4 6.001 13.421 13.414 13.421h53.63c7.407 0 13.428-6.021 13.428-13.421v-10.732c0-7.4-6.021-13.401-13.428-13.401h-53.63c-7.414 0-13.414 6.001-13.414 13.401v10.732zM363.984 398.582c0 7.434 6.001 13.394 13.414 13.394h53.63c7.407 0 13.428-5.96 13.428-13.394v-10.725c0-7.421-6.021-13.394-13.428-13.394h-53.63c-7.414 0-13.414 5.973-13.414 13.394v10.725zM363.984 269.824c0 7.434 6.001 13.435 13.414 13.435h53.63c7.407 0 13.428-6.001 13.428-13.435v-10.704c0-7.414-6.021-13.401-13.428-13.401h-53.63c-7.414 0-13.414 5.987-13.414 13.401v10.704z" />
<glyph unicode="&#xe92d;" glyph-name="customer" horiz-adv-x="987" d="M493.708 94.854c-231.765 0-420.322 188.562-420.322 420.328s188.556 420.328 420.322 420.328c231.771 0 420.334-188.562 420.334-420.328s-188.562-420.328-420.334-420.328zM493.708 923.319c-225.042 0-408.131-183.089-408.131-408.137s183.089-408.137 408.131-408.137c225.054 0 408.143 183.089 408.143 408.137s-183.089 408.137-408.143 408.137zM388.578-27.319h210.274v-12.19h-210.274v12.19zM649.612 577.658h-82.188c-4.773 0-8.667-3.889-8.667-8.661 0-4.785 3.895-8.686 8.667-8.686h82.188c4.785 0 8.68 3.901 8.68 8.686 0 4.779-3.895 8.661-8.68 8.661zM440.838 569.003c0 4.773-3.895 8.661-8.667 8.661h-82.188c-4.773 0-8.667-3.889-8.667-8.661 0-4.785 3.895-8.686 8.667-8.686h82.188c4.779 0 8.667 3.895 8.667 8.686zM627.255 427.343c-4.072 1.762-8.606-0.207-10.264-4.047-19.438-45.001-65.298-74.082-116.821-74.082-52.699 0-98.846 29.129-117.547 74.216-1.213 2.907-4.023 4.791-7.168 4.791-1.036 0-2.048-0.201-3.011-0.603-1.896-0.786-3.383-2.286-4.181-4.206-0.786-1.908-0.774-4.005 0.012-5.906 21.132-50.944 72.893-83.84 131.895-83.84 57.704 0 109.166 32.762 131.133 83.468 0.811 1.896 0.835 4.017 0.073 5.961-0.762 1.92-2.225 3.438-4.12 4.248z" />
<glyph unicode="&#xe92e;" glyph-name="demolish" d="M484.582 355.558c-0.269-0.845-0.461-1.715-0.461-2.637v-23.923c0-4.698 3.802-8.486 8.512-8.486h50.611v-15.424c0-4.71 3.802-8.512 8.499-8.512h186.65c4.685 0 8.499 3.802 8.499 8.512v14.861h59.11c4.685 0 8.499 3.802 8.499 8.486v239.027c0 4.685-3.814 8.512-8.499 8.512h-184.845c-4.685 0-8.486-3.814-8.486-8.512v-124.288c0-0.947 0.154-1.869 0.461-2.765l11.136-32.282h-24.346c1.6 1.254 2.739 2.995 3.123 5.030 0.461 2.317-0.090 4.723-1.472 6.643l-58.061 79.334c-0.525 1.69-1.523 3.187-2.982 4.301-0.090 0.051-0.179 0.064-0.256 0.141l-183.475 250.637c-1.677 2.304-4.314 3.507-6.976 3.482-0.051 0-0.090 0-0.128 0-0.154 0-0.294-0.038-0.448-0.051-0.346-0.038-0.704-0.064-1.050-0.141-0.243-0.051-0.461-0.115-0.691-0.205-0.269-0.090-0.55-0.166-0.819-0.282-0.269-0.102-0.525-0.243-0.768-0.371-0.154-0.077-0.307-0.128-0.461-0.218l-45.338-28.109c-0.038-0.038-0.077-0.064-0.115-0.102-0.23-0.154-0.448-0.32-0.653-0.512-0.218-0.166-0.435-0.32-0.627-0.512-0.179-0.166-0.32-0.358-0.486-0.538-0.192-0.218-0.397-0.435-0.563-0.691-0.141-0.192-0.256-0.41-0.371-0.614-0.154-0.256-0.294-0.512-0.41-0.781-0.102-0.218-0.179-0.461-0.269-0.678-0.102-0.282-0.192-0.55-0.269-0.845-0.051-0.243-0.090-0.474-0.128-0.704-0.051-0.307-0.090-0.627-0.090-0.947 0-0.115-0.026-0.218-0.026-0.32v-331.034c0-0.128 0.026-0.243 0.026-0.346-58.227-4.326-104.141-52.902-104.141-112.23 0-62.182 50.406-112.614 112.602-112.614s112.602 50.419 112.602 112.614c0 59.328-45.901 107.917-104.141 112.256 0.013 0.115 0.038 0.23 0.038 0.346v296.192l126.669-244.288c0.154-2.291 1.267-4.403 3.072-5.901l41.741-80.512zM522.726 498.739l-62.451-38.733 19.034 98.048 43.418-59.315zM747.584 507.981v-59.482h-71.181v59.482h71.181zM493.005 376.256l-32.986 63.603 61.363 38.054-28.378-101.658zM419.238 640.128l43.341-59.213-50.701-31.462 7.36 90.675zM359.245 722.086l41.28-56.371-38.874-24.115-2.406 80.486zM402.765 647.078l-6.81-83.712-31.194 60.147 38.003 23.565zM462.541 560.883l-17.792-91.597-31.603 60.954 49.395 30.643zM509.44 371.891l29.286 104.973 43.699-59.712-72.986-45.261zM341.888 734.208l2.112-70.63-28.237 54.426 26.125 16.205zM784.576 279.565h-279.002c-26.138 0-47.424-21.274-47.424-47.411v-46.426c0-26.138 21.286-47.424 47.424-47.424h279.002c26.15 0 47.424 21.286 47.424 47.424v46.426c0 26.138-21.274 47.411-47.424 47.411zM779.469 224.87v-31.872h-268.774v31.872h268.774z" />
<glyph unicode="&#xe92f;" glyph-name="design" d="M714.099 448h-16.819v16.845c0 9.306-7.552 16.845-16.845 16.845h-437.926c-9.267 0-16.845-7.539-16.845-16.845v-336.845c0-46.438 37.798-84.224 84.224-84.224h303.168c46.451 0 84.224 37.786 84.224 84.224v84.211h16.819c65.050 0 117.901 52.851 117.901 117.888 0 64.998-52.851 117.901-117.901 117.901v0zM579.379 515.366h67.366c6.413 0 12.301 3.648 15.13 9.421l51.302 104.576c33.92 4.838 59.43 35.072 64.602 78.643 6.592 55.258-21.069 123.098-97.408 141.555-6.758 1.613-13.734-1.050-17.715-6.643-3.968-5.645-4.070-13.133-0.294-18.957 17.754-27.149 7.040-43.187-11.942-67.136-7.219-9.126-14.118-17.83-18.214-27.622-7.91-18.688-8.32-38.426-1.178-55.437 3.136-7.475 7.872-14.182 13.606-20.173l-66.573-93.99-4.198-6.042-8.256-11.648c-3.61-5.171-4.109-11.891-1.19-17.446 2.931-5.555 8.653-9.101 14.963-9.101v0zM217.523 715.059c-5.619 3.405-12.685 3.2-18.15-0.474-5.427-3.738-8.205-10.24-7.142-16.717l15.706-94.054 81.587 68.083-72 43.162zM276.211 515.366h101.414c8.998 0 16.179 7.104 16.653 16 0.474-8.896 7.654-16 16.666-16h134.746c9.293 0 16.832 7.514 16.832 16.845v16.845h-42.112c-9.267 0-16.832 7.514-16.832 16.845 0 9.293 7.578 16.845 16.832 16.845h42.112v33.69h-84.211c-9.267 0-16.845 7.501-16.845 16.845 0 9.293 7.578 16.832 16.845 16.832h84.211v33.702h-42.112c-9.267 0-16.832 7.501-16.832 16.832 0 9.293 7.578 16.845 16.832 16.845h42.112v33.69h-84.211c-9.267 0-16.845 7.514-16.845 16.845 0 9.293 7.578 16.832 16.845 16.832h84.211v50.522c0 9.293-7.552 16.845-16.832 16.845h-134.758c-9.267 0-16.832-7.552-16.832-16.845v-301.555c-0.41 4.045-2.022 7.782-4.813 10.47l-74.688 104.627-90.432-75.354 38.592-51.469c3.136-4.237 8.154-6.733 13.453-6.733v0zM717.146 246.080h-16.832v168.435h16.832c46.451 0 84.211-37.811 84.211-84.224s-37.76-84.211-84.211-84.211v0zM666.253 716.326c2.368 5.632 7.821 12.506 13.619 19.738 12.787 16.179 30.17 38.17 28.25 66.765 31.59-21.555 43.021-58.893 39.232-90.611-2.765-23.040-15.053-49.92-40.691-49.92h-0.026l-28.736 9.536c-5.901 4.109-10.342 9.203-12.838 15.168-3.584 8.742-3.264 18.854 1.19 29.325v0z" />
<glyph unicode="&#xe930;" glyph-name="dollar" d="M696.337 347.904c0-73.54-51.234-136.294-146.142-152.064v-85.197h-81.954v78.694c-55.535 2.304-109.039 18.074-140.527 35.396l24.764 96.87c34.731-19.029 83.371-36.403 137.301-36.403 47.94 0 80.111 18.995 80.111 51.166 0 31.471-26.573 51.2-88.439 72.004-88.457 29.884-148.89 71.117-148.89 151.262 0 73.626 51.234 130.577 139.674 147.2v78.541h81.033v-72.738c54.665-1.621 91.87-14.080 120.832-27.255l-24.951-93.389c-20.582 9.95-59.529 28.945-119.023 28.945-53.709 0-71.1-24.081-71.1-47.241 0-26.402 28.945-44.646 100.028-70.161 98.389-34.714 137.284-80.333 137.284-155.631v0zM512 12.766c-239.974 0-435.2 195.243-435.2 435.234s195.226 435.217 435.2 435.217 435.2-195.226 435.2-435.217-195.226-435.234-435.2-435.234zM512 866.15c-230.554 0-418.133-187.58-418.133-418.15 0-230.588 187.58-418.167 418.133-418.167 230.571 0 418.133 187.58 418.133 418.167 0 230.571-187.563 418.15-418.133 418.15z" />
<glyph unicode="&#xe931;" glyph-name="eye" d="M596.599 271.821c-41.557-2.321-83.371-1.058-124.928 3.686-41.574 4.625-82.91 13.158-122.846 26.573-39.953 13.244-78.677 30.925-114.603 53.572-35.942 22.972-68.983 49.476-95.881 85.453l-5.615 7.509 7.287 7.117c49.988 48.777 106.325 92.058 169.284 124.228 62.737 32.341 133.035 51.678 204.169 53.077 71.1 1.058 141.995-15.548 205.193-46.421 63.198-30.942 120.849-72.124 168.26-124.126l2.065-2.253-0.768-2.645c-4.062-14.336-10.291-26.675-17.476-38.827-7.287-11.998-15.753-23.177-25.173-33.417-18.773-20.617-41.591-37.018-66.048-49.425 23.33 14.455 44.322 32.444 61.44 53.402 8.516 10.513 16.009 21.794 22.255 33.69 6.11 11.776 11.401 24.627 14.063 36.915l1.297-4.898c-48.367 47.479-106.103 86.613-168.107 113.732-62.123 26.846-129.246 42.274-196.437 39.748-67.209-1.553-133.103-20.838-193.297-51.132-60.382-30.362-114.961-71.919-164.864-118.289l1.673 14.626c10.615-15.258 25.105-30.498 39.817-43.93 14.916-13.602 30.822-26.283 47.616-37.751 33.587-22.989 70.366-41.523 108.8-55.859 38.485-14.199 78.438-24.781 119.108-32.102 40.755-7.134 82.142-10.786 123.716-12.254zM735.454 446.362c0-98.102-76.486-177.63-170.837-177.63s-170.837 79.528-170.837 177.63c0 98.102 76.486 177.63 170.837 177.63s170.837-79.528 170.837-177.63zM512 12.766c-239.974 0-435.2 195.243-435.2 435.234s195.226 435.217 435.2 435.217 435.2-195.226 435.2-435.217-195.226-435.234-435.2-435.234zM512 866.15c-230.554 0-418.133-187.58-418.133-418.15 0-230.588 187.58-418.167 418.133-418.167 230.571 0 418.133 187.58 418.133 418.167 0 230.571-187.563 418.15-418.133 418.15z" />
<glyph unicode="&#xe932;" glyph-name="fitting-out" d="M786.598 519.322l-80.614-54.899c-6.925 14.682-13.85 29.363-20.774 44.032l14.49 6.093c0.691 0.282 1.331 0.64 1.907 1.050 1.83 1.242 3.238 3.021 4.032 5.12 1.050 2.778 0.896 5.862-0.384 8.538l-34.432 71.117c-2.509 5.171-8.627 7.488-13.952 5.261l-14.605-6.144c-2.714 5.734-5.414 11.469-8.128 17.203-57.088 121.37-216.819 115.085-313.907 49.651-6.003-4.045-8.986-6.093-14.963-10.189-96.435-66.381-160.794-212.71-68.762-310.272 50.931-54.144 101.875-108.275 152.819-162.406l339.955 231.539c-1.536 3.264-3.072 6.515-4.595 9.779l68.403 46.592c6.912-9.139 19.853-11.354 29.453-4.826 9.869 6.733 12.429 20.198 5.696 30.080l-11.571 16.998c-6.72 9.856-20.186 12.429-30.067 5.683v0zM524.186 350.861c-64.243-43.763-151.77-27.149-195.507 37.069-43.75 64.23-27.136 151.757 37.082 195.507 64.218 43.763 151.757 27.162 195.52-37.069 43.738-64.23 27.136-151.77-37.094-195.507v0zM381.875 498.995l-15.117-10.304-16.602-41.971 20.058-7.898 8.448 21.184 38.323-56.269-16.346-11.123 12.109-17.805 54.797 37.325-12.109 17.792-18.138-12.352-55.424 81.421zM445.619 544.64c-21.606-14.707-23.821-34.637-12.147-51.789l29.235-42.931c11.661-17.139 31.040-22.362 52.621-7.654 21.594 14.694 23.834 34.637 12.173 51.763l-29.261 42.931c-11.686 17.165-31.040 22.387-52.621 7.68v0zM506.982 480.461c4.941-7.232 4.621-14.694-3.507-20.237l-0.512-0.346c-8.115-5.53-15.181-3.098-20.096 4.147l-28.89 42.406c-4.941 7.245-4.621 14.707 3.494 20.237l0.512 0.346c8.128 5.53 15.181 3.098 20.109-4.147l28.89-42.406z" />
<glyph unicode="&#xe933;" glyph-name="coin" d="M512 12.766c-239.974 0-435.2 195.243-435.2 435.234s195.226 435.217 435.2 435.217 435.2-195.226 435.2-435.217-195.226-435.234-435.2-435.234zM512 866.15c-230.554 0-418.133-187.58-418.133-418.15 0-230.588 187.58-418.167 418.133-418.167 230.571 0 418.133 187.58 418.133 418.167 0 230.571-187.563 418.15-418.133 418.15zM783.394 485.018c0 23.142-32 39.663-76.851 50.876-58.163 18.398-137.523 24.559-194.526 24.559-100.813 0-271.411-19.217-271.411-91.358v-42.274c0-72.090 170.598-91.324 271.411-91.324 100.796 0 271.377 19.234 271.377 91.324v42.274c0 3.362-0.478 6.571-1.195 9.711 0.529 2.065 1.195 4.062 1.195 6.212zM516.966 535.535c78.575 0 138.769-7.782 180.105-17.783 33.673-10.342 56.371-23.586 63.59-38.434-15.104-18.176-97.997-44.817-243.678-44.817-161.792 0-246.46 32.905-246.46 50.517-0.017 17.63 84.651 50.517 246.443 50.517zM512.017 355.55c-140.988 0-251.409 31.334-251.409 71.305v37.444c36.181-36.062 165.086-49.801 256.358-49.801 84.258 0 200.533 11.725 246.426 41.882v-29.525c0-39.97-110.404-71.305-251.375-71.305z" />
<glyph unicode="&#xe934;" glyph-name="gridview" horiz-adv-x="1536" d="M374.579 505.068h-244.244c-43.699 0-79.135 35.436-79.135 79.155v244.204c0 43.725 35.436 79.155 79.135 79.155h244.244c43.699 0 79.135-35.436 79.135-79.155v-244.204c0-43.72-35.436-79.155-79.135-79.155zM890.117 505.068h-244.224c-43.725 0-79.135 35.441-79.135 79.16v244.198c0 43.725 35.41 79.155 79.135 79.155h244.224c43.72 0 79.135-35.436 79.135-79.155v-244.204c0-43.72-35.415-79.155-79.135-79.155zM1405.665 505.068h-244.244c-43.699 0-79.135 35.441-79.135 79.16v244.198c0 43.725 35.436 79.155 79.135 79.155h244.244c43.699 0 79.135-35.436 79.135-79.155v-244.204c0-43.72-35.436-79.155-79.135-79.155zM374.579-11.587h-244.244c-43.699 0-79.135 35.389-79.135 79.109v244.204c0 43.766 35.436 79.155 79.135 79.155h244.244c43.699 0 79.135-35.389 79.135-79.155v-244.204c0-43.72-35.436-79.109-79.135-79.109zM890.117-11.587h-244.224c-43.725 0-79.135 35.389-79.135 79.109v244.204c0 43.766 35.41 79.155 79.135 79.155h244.224c43.72 0 79.135-35.389 79.135-79.155v-244.204c0-43.72-35.415-79.109-79.135-79.109zM1405.665-11.587h-244.244c-43.699 0-79.135 35.389-79.135 79.109v244.204c0 43.766 35.436 79.155 79.135 79.155h244.244c43.699 0 79.135-35.389 79.135-79.155v-244.204c0-43.72-35.436-79.109-79.135-79.109z" />
<glyph unicode="&#xe935;" glyph-name="land" d="M904.567 243.808l-187.74 469.907c-2.355 5.693-6.287 10.663-11.68 14.841-5.393 4.198-11.107 6.308-17.114 6.308h-152.603c3.912 0 7.38-1.42 10.363-4.26 2.997-2.86 4.669-6.226 4.97-10.138l6.752-86.432c0.328-4.178-0.894-7.646-3.591-10.342s-6.001-4.055-9.892-4.055h-74.738c-3.912 0-7.195 1.359-9.899 4.055-2.71 2.697-3.912 6.164-3.584 10.342l6.731 86.432c0.3 3.912 1.946 7.277 4.949 10.138 3.017 2.84 6.444 4.26 10.363 4.26h-152.596c-6.001 0-11.694-2.109-17.087-6.308-5.393-4.178-9.305-9.141-11.721-14.841l-187.699-469.907c-7.789-18.616-11.701-36.004-11.701-52.224 0-21.941 6.915-32.884 20.719-32.884h316.853c-3.891 0-7.202 1.461-9.892 4.294-2.697 2.881-3.891 6.246-3.591 10.138l9.004 115.2c0.3 3.891 1.946 7.298 4.949 10.138 2.997 2.881 6.444 4.253 10.363 4.253h122.423c3.912 0 7.359-1.372 10.363-4.253 2.997-2.84 4.628-6.246 4.949-10.138l8.998-115.2c0.328-3.891-0.894-7.257-3.564-10.138-2.751-2.833-6.001-4.294-9.933-4.294h316.894c13.79 0 20.678 10.95 20.678 32.884-0.014 16.213-3.905 33.608-11.694 52.224v0zM574.635 401.783c0.287-3.604-0.928-6.608-3.625-8.998s-5.837-3.611-9.428-3.611h-109.855c-3.584 0-6.752 1.222-9.448 3.611s-3.912 5.393-3.611 8.998v1.83l10.807 144.009c0.3 3.891 1.946 7.257 4.963 10.117 3.004 2.854 6.451 4.294 10.342 4.294h83.743c3.891 0 7.339-1.44 10.37-4.294 2.976-2.86 4.642-6.226 4.922-10.117l10.827-144.009v-1.83z" />
<glyph unicode="&#xe936;" glyph-name="listview" horiz-adv-x="1536" d="M90.619 691.948h1354.767c21.76 0 39.414-17.679 39.414-39.439v0c0-21.765-17.654-39.398-39.414-39.398h-1354.767c-21.76 0-39.419 17.633-39.419 39.398v0c0 21.755 17.654 39.439 39.419 39.439zM90.619 487.393h1354.767c21.76 0 39.414-17.679 39.414-39.439v0c0-21.765-17.654-39.393-39.414-39.393h-1354.767c-21.76 0-39.419 17.628-39.419 39.393v0c0 21.76 17.654 39.439 39.419 39.439zM90.619 282.849h1354.767c21.76 0 39.414-17.633 39.414-39.393v0c0-21.765-17.654-39.398-39.414-39.398h-1354.767c-21.76 0-39.419 17.633-39.419 39.398v0c0 21.76 17.654 39.393 39.419 39.393z" />
<glyph unicode="&#xe937;" glyph-name="luv" d="M1001.103-12.349l-197.079 197.161c-0.061 0.061-0.123 0.061-0.184 0.123l-179.139 179.098c57.405 62.525 92.774 145.572 92.795 236.933 0 193.577-157.491 351.048-351.089 351.048-193.556 0.020-351.007-157.471-351.007-351.027 0-193.577 157.45-351.068 351.007-351.068 83.804 0 160.768 29.594 221.184 78.787l377.303-377.242c4.833-4.833 11.264-7.496 18.104-7.496s13.251 2.662 18.125 7.516c9.912 9.974 9.912 26.173-0.020 36.168zM366.408 900.833c165.356 0 299.868-134.513 299.889-299.848 0-165.356-134.533-299.868-299.889-299.868-165.315 0-299.807 134.513-299.807 299.868s134.492 299.848 299.807 299.848z" />
<glyph unicode="&#xe938;" glyph-name="moving" d="M195.968 686.259c-13.581 41.139 8.845 85.658 49.997 99.238 41.139 13.568 85.658-8.87 99.238-50.010l154.406-467.955c-14.374 3.776-29.683 4.48-44.966 1.702l-149.491 453.069c-6.285 19.046-26.918 29.44-45.978 23.168-19.072-6.31-29.453-26.918-23.168-45.978 3.648-11.059-2.368-22.989-13.427-26.65-11.046-3.648-22.963 2.355-26.611 13.414v0zM804.314 319.168l-252.992-83.469c8.986-10.214 16.102-22.31 20.621-36.006 0.154-0.486 0.243-0.986 0.384-1.472l245.171 80.896c11.059 3.648 17.075 15.565 13.414 26.624-3.622 11.059-15.552 17.075-26.598 13.427v0zM551.91 193.075c14.336-43.456-9.267-90.278-52.698-104.602-43.456-14.336-90.278 9.267-104.602 52.685-14.336 43.456 9.254 90.291 52.685 104.627 43.456 14.336 90.278-9.267 104.614-52.71v0zM512.589 180.109c-7.181 21.722-30.592 33.51-52.301 26.355-21.722-7.181-33.51-30.605-26.355-52.314 7.168-21.722 30.579-33.51 52.301-26.355s33.51 30.592 26.355 52.314v0zM740.378 636.595l85.888-260.314c1.83-5.542-1.19-11.494-6.707-13.299l-270.323-89.203c-5.53-1.83-11.469 1.178-13.312 6.694l-85.888 260.301c-1.83 5.542 1.178 11.494 6.707 13.338l270.323 89.19c5.517 1.83 11.482-1.19 13.312-6.707v0zM704.614 485.363l-92.032 50.65-43.827-95.462 29.018-13.35 18.931 41.293 34.227-103.68 32.742 10.79-34.214 103.68 39.795-21.901 15.36 27.981zM624.282 640.666l-54.899 166.426c-1.178 3.533-4.979 5.453-8.512 4.275l-47.091-15.514-0.243-0.422-0.384 0.23-24.845-8.218 20.467-62.003-28.019-9.242-20.467 62.003-24.832-8.218-0.192-0.397-0.435 0.205-46.784-15.437c-3.533-1.165-5.453-4.992-4.288-8.525l54.912-166.426c1.178-3.533 4.992-5.453 8.525-4.275l172.826 57.011c3.52 1.178 5.44 4.992 4.262 8.525v0z" />
<glyph unicode="&#xe939;" glyph-name="office-count" d="M744.107 215.927h-116.907v17.067h99.84v430.029h-430.029v-430.029h99.789v-17.067h-116.855v464.162h464.162zM618.667 454.844h17.067v-230.383h-17.067v230.383zM405.333 224.461h-17.067c0 11.759 0.87 23.637 2.56 35.226l16.896-2.492c-1.587-10.769-2.389-21.794-2.389-32.734zM410.743 273.374l-16.674 3.738c2.594 11.537 6.059 22.938 10.325 33.86l15.906-6.195c-3.942-10.138-7.151-20.702-9.557-31.403zM426.837 319.863l-15.394 7.339c5.069 10.667 10.991 20.992 17.562 30.703l14.131-9.574c-6.11-8.994-11.588-18.603-16.299-28.467zM452.813 361.626l-13.397 10.564c7.305 9.267 15.326 18.039 23.859 26.095l11.708-12.442c-7.936-7.441-15.377-15.616-22.17-24.218zM487.356 396.698l-10.769 13.227c9.079 7.407 18.842 14.199 28.979 20.241l8.738-14.66c-9.455-5.632-18.517-11.947-26.948-18.807zM528.708 423.305l-7.595 15.292c10.513 5.222 21.555 9.694 32.768 13.312l5.239-16.23c-10.445-3.362-20.668-7.509-30.413-12.373zM574.908 440.115l-3.994 16.606c11.469 2.748 23.194 4.676 34.884 5.717l1.502-16.998c-10.871-0.973-21.76-2.765-32.393-5.325zM623.701 446.276l-0.239 17.067 3.738 0.034v-17.067l-3.499-0.034zM512 12.8c-239.974 0-435.2 195.226-435.2 435.2s195.226 435.2 435.2 435.2 435.2-195.226 435.2-435.2-195.226-435.2-435.2-435.2zM512 866.133c-230.571 0-418.133-187.563-418.133-418.133s187.563-418.133 418.133-418.133 418.133 187.563 418.133 418.133-187.563 418.133-418.133 418.133z" />
<glyph unicode="&#xe93a;" glyph-name="price" horiz-adv-x="987" d="M600.314 309.083h-54.193c-5.589 0-10.709 2.578-14.043 7.077-3.304 4.45-4.273 10.039-2.67 15.33 2.024 6.827 3.986 13.891 5.949 21.419-32.037-6.467-66.633-6.796-98.907-0.92-2.907-10.862-6.254-21.474-9.984-31.604-2.493-6.754-9.088-11.301-16.408-11.301h-54.156c-5.583 0-10.697 2.572-14.037 7.058-3.31 4.443-4.297 10.033-2.712 15.33 5.132 17.109 9.618 34.95 13.342 53.083-20.986 13.672-38.296 30.763-50.31 49.688-10.661 0.786-18.365 2.146-23.503 4.126-31.488 12.105-39.284 56.686-41.137 82.182-0.402 5.882 1.512 11.544 5.382 15.957 3.864 4.401 9.222 7.046 15.086 7.448 11.477 0.768 22.12 3.249 32.469 7.564 9.734 27.819 27.648 50.511 53.309 67.529-13.812 17.688-24.113 40.588-26.088 58.459l-0.53 4.748 4.766 0.317c43.995 2.92 88.771-14.86 115.535-31.817 3.389 0.421 6.821 0.78 10.313 1.14l4.724 0.482 0.299-4.742c2.426-38.266 34.298-68.242 72.558-68.242 29.251 0 55.564 17.426 67.042 44.392l1.95 4.584 4.407-2.341c32.494-17.292 57.24-41.033 71.784-68.809 4.443 1.018 8.613 2.462 12.428 4.315-8.277 5.016-14.811 11.874-18.779 19.852-8.923 17.804-2.072 31.366 6.51 37.577 11.069 7.96 28.056 5.748 38.851-5.035 9.070-9.051 14.738-19.554 16.36-30.11 4.126 1.841 7.497 4.712 10.082 8.594 4.261 6.327 13.422 8.149 19.742 3.95 3.17-2.097 5.333-5.315 6.089-9.051 0.75-3.736 0.006-7.534-2.109-10.697-9.362-14.056-24.582-22.565-42.021-23.582-5.053-6.485-12.282-12.105-21.522-16.738-4.797-2.395-9.935-4.352-15.33-5.851 2.572-9.874 3.877-19.864 3.877-29.769 0-36.358-17.048-71.497-48.043-99.133-4.212-29.647-10.758-56.21-19.98-81.158-2.505-6.766-9.094-11.301-16.39-11.301zM547.883 365.086l-1.822-7.259c-2.609-10.386-5.187-19.864-7.887-28.971-0.762-2.517-0.305-5.15 1.256-7.253 1.591-2.146 4.029-3.377 6.699-3.377h54.193c3.493 0 6.644 2.146 7.838 5.339 9.155 24.771 15.616 51.249 19.724 80.908l0.238 1.688 1.286 1.128c29.794 26.033 46.196 59.197 46.196 93.379 0 10.551-1.609 21.236-4.779 31.744l-1.42 4.712 4.803 1.067c6.388 1.42 12.41 3.529 17.908 6.272 8.741 4.376 15.299 9.649 19.493 15.659l1.335 1.908 2.322 0.049c15.348 0.317 28.788 7.461 36.876 19.602 0.75 1.128 1.018 2.487 0.75 3.822s-1.048 2.487-2.182 3.243c-2.31 1.542-5.559 0.847-7.089-1.42-4.84-7.278-12.032-12.16-20.779-14.098l-5.541-1.225-0.018 5.675c-0.030 10.13-5.059 20.699-14.153 29.781-7.717 7.698-19.517 9.515-27.045 4.090-5.943-4.297-10.033-13.403-3.682-26.075 4.169-8.375 11.941-15.275 21.888-19.438l7.546-3.157-6.644-4.773c-2.036-1.463-4.443-2.889-7.582-4.486-5.693-2.84-11.995-4.876-18.755-6.065l-3.383-0.591-1.512 3.078c-12.843 26.173-35.34 48.774-65.231 65.597-13.842-27.733-42.106-45.385-73.344-45.385-41.484 0-76.294 31.293-81.243 72.070-2.402-0.256-4.773-0.53-7.125-0.841l-1.664-0.219-1.414 0.914c-24.375 15.799-65.396 32.738-106.405 31.512 3.194-16.841 13.458-37.413 26.539-52.76l3.456-4.053-4.529-2.798c-26.764-16.524-45.093-39.205-54.491-67.401l-0.64-1.92-1.859-0.817c-11.916-5.236-24.137-8.21-37.358-9.1-3.432-0.238-6.571-1.78-8.832-4.358-2.255-2.572-3.371-5.864-3.139-9.283 1.688-23.314 8.527-64 35.304-74.295 4.571-1.768 12.355-3.011 23.15-3.7l2.371-0.152 1.237-2.030c11.813-19.328 29.55-36.766 51.31-50.438l2.67-1.676-0.622-3.090c-3.907-19.456-8.68-38.632-14.171-56.978-0.75-2.493-0.28-5.132 1.292-7.241 1.597-2.146 4.035-3.371 6.699-3.371h54.168c3.511 0 6.656 2.139 7.826 5.321 4.096 11.112 7.729 22.839 10.795 34.859l1.073 4.2 4.254-0.853c34.664-6.924 72.326-6.351 106.575 1.64l7.272 1.694zM367.397 541.251c-11.41 0-20.693 9.283-20.693 20.699 0 11.41 9.277 20.693 20.693 20.693s20.693-9.283 20.693-20.693c0-11.41-9.283-20.699-20.693-20.699zM367.397 573.495c-6.37 0-11.55-5.181-11.55-11.55s5.181-11.557 11.55-11.557 11.55 5.181 11.55 11.557c0 6.37-5.181 11.55-11.55 11.55zM707.468 572.233l-6.479 2.158c-8.887 2.962-15.994 8.649-19.48 15.61-2.956 5.955-2.755 10.917 0.53 13.282 3.566 2.56 9.527 1.323 13.873-3.035 6.662-6.693 10.6-14.22 11.081-21.205l0.475-6.808zM690.444 592.744c0.774-1.219 1.743-2.389 2.877-3.48-0.853 1.17-1.816 2.341-2.877 3.48zM525.373 583.162c-38.077 0-69.059 30.982-69.059 69.059s30.982 69.059 69.059 69.059 69.059-30.982 69.059-69.059-30.982-69.059-69.059-69.059zM525.373 712.137c-33.036 0-59.916-26.88-59.916-59.916s26.88-59.916 59.916-59.916 59.916 26.88 59.916 59.916-26.88 59.916-59.916 59.916zM525.373 598.814c-6.059 0-10.99 4.949-10.99 11.032v1.573c-10.142 3.273-15.951 10.722-18.066 17.067-1.908 5.766 1.195 12.032 6.936 13.964 5.833 1.92 12.087-1.353 13.958-6.985 0.463-1.371 2.712-3.724 8.162-3.724 3.486 0 5.272 1.969 5.461 3.797 0.28 2.761-3.81 4.626-7.735 5.455-19.005 3.962-26.307 17.548-25.112 29.251 1.012 9.545 7.308 17.603 16.39 21.339v2.097c0 6.077 4.931 11.020 10.99 11.020 6.077 0 11.026-4.943 11.026-11.020v-1.591c10.161-3.298 15.963-10.758 18.066-17.097 0.926-2.773 0.719-5.76-0.591-8.399-1.317-2.633-3.572-4.596-6.363-5.528-5.565-1.883-12.056 1.317-13.934 6.942-0.469 1.396-2.731 3.779-8.204 3.779-3.462 0-5.248-1.975-5.443-3.81-0.293-2.749 3.791-4.608 7.71-5.437 19.023-3.968 26.338-17.548 25.137-29.251-0.994-9.539-7.29-17.603-16.384-21.339v-2.091c0.012-6.095-4.937-11.045-11.014-11.045zM506.752 633.874c-0.201 0-0.402-0.030-0.603-0.098-0.951-0.323-1.481-1.402-1.146-2.408 1.542-4.638 6.26-10.21 14.86-11.941l3.675-0.738v-8.844c0-1.061 0.811-1.89 1.847-1.89 1.073 0 1.883 0.811 1.883 1.89v8.838l3.365 0.92c7.217 1.981 12.343 7.723 13.068 14.616 0.756 7.387-3.554 16.36-17.92 19.358-11.941 2.53-15.537 9.588-14.921 15.354 0.634 5.955 5.827 11.983 14.537 11.983 9.96 0 15.311-5.388 16.872-10.002 0.299-0.89 1.109-1.286 1.774-1.286 1.231 0.317 1.542 0.78 1.67 1.036 0.128 0.262 0.317 0.792 0.104 1.426-1.542 4.657-6.254 10.234-14.872 11.995l-3.663 0.75v8.838c0 1.048-0.829 1.877-1.883 1.877-1.018 0-1.847-0.841-1.847-1.877v-8.844l-3.365-0.92c-7.217-1.981-12.349-7.723-13.080-14.622-0.756-7.381 3.547-16.36 17.902-19.352 11.916-2.517 15.537-9.57 14.946-15.336-0.616-5.967-5.809-12.008-14.562-12.008-9.941 0-15.281 5.37-16.835 9.966-0.317 0.914-1.134 1.317-1.804 1.317zM493.708 94.854c-231.765 0-420.322 188.562-420.322 420.328s188.556 420.328 420.322 420.328c231.771 0 420.334-188.562 420.334-420.328s-188.562-420.328-420.334-420.328zM493.708 923.325c-225.048 0-408.131-183.089-408.131-408.137s183.089-408.137 408.131-408.137c225.054 0 408.143 183.089 408.143 408.137s-183.089 408.137-408.143 408.137zM388.578-27.319h210.274v-12.19h-210.274v12.19z" />
<glyph unicode="&#xe93b;" glyph-name="right-arrow-light" d="M512 926.72c-263.967 0-478.72-214.753-478.72-478.72s214.753-478.72 478.72-478.72c263.967 0 478.72 214.753 478.72 478.72s-214.753 478.72-478.72 478.72zM512 5.12c-238.182 0-432.988 189.030-442.429 424.96h568.996l-183.972-194.847c-3.297-3.502-5.038-8.069-4.895-12.841 0.143-4.792 2.13-9.236 5.591-12.493 3.338-3.174 7.7-4.915 12.329-4.915 4.874 0 9.626 2.048 13.025 5.612l212.48 225.055c0.696 0.737 1.024 1.659 1.577 2.478 0.696 1.044 1.516 1.966 2.007 3.154 0.717 1.802 1.024 3.707 1.147 5.612 0.020 0.389 0.225 0.717 0.225 1.106 0 0.471-0.246 0.881-0.287 1.372-0.143 1.802-0.389 3.604-1.085 5.304-0.512 1.311-1.413 2.376-2.212 3.502-0.471 0.696-0.737 1.475-1.331 2.109l-0.287 0.307c-0.041 0.020-0.082 0.061-0.102 0.102l-212.152 224.707c-6.533 6.943-18.534 7.209-25.313 0.758-3.502-3.297-5.509-7.762-5.632-12.575-0.123-4.792 1.618-9.359 4.895-12.8l183.992-194.888h-568.996c9.441 235.93 204.247 424.98 442.429 424.98 244.204 0 442.88-198.676 442.88-442.88s-198.676-442.88-442.88-442.88z" />
<glyph unicode="&#xe93c;" glyph-name="ruko" d="M511.98 712.724l-321.686-265.223c0-0.369-0.061-0.942-0.266-1.679-0.164-0.73-0.266-1.27-0.266-1.679v-369.889c0-9.748 3.523-18.091 10.622-25.177 7.066-7.079 15.456-10.684 25.136-10.684h214.876v146.111h143.237v-146.111h214.835c9.701 0 18.057 3.604 25.143 10.65 7.079 7.079 10.677 15.476 10.677 25.218v369.882c0 1.522-0.246 2.621-0.573 3.359l-321.734 265.223zM625.582 319.317c0 11.503 9.332 20.835 20.842 20.835h83.395c11.503 0 20.835-9.332 20.835-20.835v-16.705c0-11.462-9.332-20.801-20.835-20.801h-83.401c-11.51 0-20.842 9.339-20.842 20.801v16.705zM449.481 319.317c0 11.503 9.339 20.835 20.842 20.835h83.367c11.523 0 20.862-9.332 20.862-20.835v-16.705c0-11.462-9.332-20.801-20.862-20.801h-83.367c-11.503 0-20.842 9.339-20.842 20.801v16.705zM273.36 319.317c0 11.503 9.332 20.835 20.855 20.835h83.374c11.523 0 20.862-9.332 20.862-20.835v-16.705c0-11.462-9.332-20.801-20.862-20.801h-83.374c-11.523 0-20.855 9.339-20.855 20.801v16.705zM625.582 170.626c0 11.503 9.332 20.835 20.842 20.835h83.395c11.503 0 20.835-9.332 20.835-20.835v-16.705c0-11.462-9.332-20.794-20.835-20.794h-83.401c-11.51 0-20.842 9.332-20.842 20.794v16.705zM273.36 170.626c0 11.503 9.332 20.835 20.855 20.835h83.374c11.523 0 20.862-9.332 20.862-20.835v-16.705c0-11.462-9.332-20.794-20.862-20.794h-83.374c-11.523 0-20.855 9.332-20.855 20.794v16.705zM449.481 485.267c0 11.51 9.339 20.842 20.842 20.842h83.367c11.523 0 20.862-9.332 20.862-20.842v-16.678c0-11.51-9.332-20.842-20.862-20.842h-83.367c-11.503 0-20.842 9.332-20.842 20.842v16.678zM956.778 507.924l-122.573 101.84v228.277c0 5.222-1.638 9.523-4.99 12.882-3.359 3.331-7.653 5.011-12.855 5.011h-107.424c-5.243 0-9.503-1.679-12.855-5.011-3.359-3.359-5.079-7.66-5.079-12.882v-109.124l-136.479 114.142c-11.933 9.68-26.119 14.554-42.51 14.554-16.439 0-30.583-4.874-42.516-14.554l-402.289-335.135c-3.727-2.983-5.769-6.977-6.144-12.008-0.369-5.018 0.922-9.421 3.932-13.169l34.659-41.37c2.99-3.359 6.915-5.448 11.728-6.185 4.506-0.369 9.004 0.949 13.469 3.932l387.127 322.806 387.161-322.806c2.99-2.621 6.915-3.932 11.749-3.932h1.679c4.826 0.737 8.759 2.826 11.79 6.185l34.679 41.39c2.949 3.727 4.301 8.124 3.884 13.148-0.369 5.031-2.458 9.025-6.144 12.008v0z" />
<glyph unicode="&#xe93d;" glyph-name="team" horiz-adv-x="987" d="M493.708 94.854c-231.765 0-420.322 188.562-420.322 420.328 0 231.771 188.556 420.328 420.322 420.328 231.771 0 420.334-188.556 420.334-420.328 0-231.765-188.562-420.328-420.334-420.328zM493.708 923.319c-225.042 0-408.131-183.089-408.131-408.137s183.089-408.137 408.131-408.137c225.054 0 408.143 183.089 408.143 408.137s-183.089 408.137-408.143 408.137zM388.578-27.319h210.274v-12.19h-210.274v12.19zM605.97 460.343c0-2.993 2.426-5.425 5.419-5.425h18.334c2.999 0 5.431 2.432 5.431 5.431s-2.426 5.431-5.431 5.431h-18.322c-2.993 0-5.431-2.432-5.431-5.437zM435.651 465.78h-18.31c-2.987 0-5.431-2.438-5.431-5.437s2.426-5.425 5.431-5.425h18.322c2.987 0 5.431 2.432 5.431 5.431s-2.444 5.431-5.443 5.431zM597.553 528.689c-34.158 0-71.918-17.792-79.287-57.533l-22.132-119.509c-0.299-1.621 0.14-3.322 1.164-4.559 1.073-1.286 2.633-2.048 4.181-2.048h124.404c2.987 0 5.419 2.426 5.419 5.431 0 2.987-2.426 5.431-5.419 5.431h-117.882l20.955 113.146c6.217 33.597 38.93 48.634 68.596 48.634 29.653 0 62.366-15.025 68.584-48.579l22.144-119.485c0.549-2.895 3.298-4.87 6.321-4.346 1.414 0.262 2.658 1.073 3.474 2.261 0.835 1.213 1.146 2.67 0.884 4.108l-22.144 119.509c-7.357 39.747-45.117 57.539-79.262 57.539zM403.48 528.689c-34.146 0-71.906-17.792-79.262-57.533l-22.138-119.515c-0.299-1.621 0.14-3.322 1.164-4.559 1.073-1.286 2.633-2.048 4.181-2.048h123.678c2.987 0 5.431 2.426 5.431 5.431 0 2.987-2.438 5.431-5.431 5.431h-117.157l20.943 113.146c6.223 33.597 38.93 48.634 68.584 48.634 29.678 0 62.391-15.025 68.608-48.579 0.475-2.572 2.712-4.437 5.321-4.437 0.335 0 0.664 0.030 1.012 0.091 2.95 0.549 4.907 3.419 4.346 6.4-7.363 39.747-45.123 57.539-79.281 57.539zM707.426 582.461c-15.323 10.344-30.964 30.665-41.844 54.357-0.884 1.914-2.438 6.467-4.724 13.19-1.438 4.242-2.81 8.283-3.499 9.96-7.796 18.962-25.307 32.317-48.037 36.62-0.073 0.012-5.705 0.884-12.843 0.884-5.76 0-10.545-0.561-14.238-1.664-20.62-5.047-36.571-17.774-43.977-34.974-0.725-1.676-2.31-6.284-3.846-10.74-1.871-5.4-3.633-10.502-4.559-12.544-11.014-24.338-26.392-44.422-42.191-55.095-1.56-1.054-2.45-2.81-2.383-4.699s1.085-3.572 2.725-4.504c8.034-4.608 17.097-7.717 26.929-9.234 2.974-0.482 5.736 1.646 6.181 4.535 0.226 1.432-0.122 2.871-0.975 4.041-0.859 1.164-2.121 1.932-3.56 2.158-3.072 0.475-6.107 1.14-9.021 1.975l-6.607 1.908 4.962 4.76c7.979 7.668 15.537 17.237 22.467 28.459l5.132 8.314 2.109-9.545c4.571-20.766 15.439-36.754 31.39-46.238 18.511-11.014 42.715-11.014 61.227 0 15.878 9.429 26.715 25.314 31.336 45.946l2.121 9.46 5.12-8.235c6.833-11.002 14.366-20.474 22.382-28.166l4.955-4.76-6.607-1.908c-3.919-1.128-8.094-1.938-12.416-2.42-1.451-0.152-2.749-0.866-3.657-1.993s-1.323-2.548-1.152-3.98c0.299-2.761 2.609-4.846 5.37-4.846 11.928 1.268 22.284 4.541 31.415 9.771 1.621 0.926 2.658 2.658 2.725 4.51 0.055 1.877-0.841 3.639-2.408 4.699zM544.128 636.404c0.012 0.402 0.213 4.291 0.39 5.772 3.407 29.452 28.855 43.733 52.584 44.818l4.907 0.226-0.823-4.846c-2.109-12.453-6.68-23.022-13.592-31.421l-0.713-0.847c-2.347-2.743-4.974-5.242-7.784-7.43-8.619-6.65-19.31-10.301-30.104-10.301v0l-4.919 0.091 0.055 3.938zM649.637 616.003c-3.523-19.291-12.843-33.914-26.941-42.295-7.595-4.504-16.262-6.888-25.070-6.888s-17.475 2.383-25.070 6.888c-14.117 8.393-23.747 23.729-27.093 43.173l-0.798 4.608 4.681 0.030c13.062 0.085 25.978 4.547 36.37 12.568 0.975 0.744 1.908 1.506 2.81 2.304l2.712 2.377 2.621-2.462c13.836-13.032 32.823-18.859 51.212-15.671l5.595 0.963-1.030-5.595zM648.235 632.472c-4.297-1.201-8.716-1.81-13.129-1.81v0c-12.763 0-24.978 5.010-34.395 14.104l-2.359 2.28 1.798 2.737c5.723 8.759 9.655 19.023 11.666 30.513l0.823 4.62 4.419-1.573c20.809-7.387 33.213-24.046 34.024-45.72l0.085-4.334-2.932-0.817zM372.949 564.376c18.511-11.008 42.703-11.020 61.227 0 22.668 13.458 34.938 40.302 33.701 73.655-1.359 36.072-28.069 53.9-52.632 58.557-0.189 0.043-4.632 0.939-11.331 0.939-5.644 0-11.118-0.634-16.274-1.871-29.202-7.272-47.311-28.818-48.384-57.63-0.128-3.48-0.122-6.942 0.049-10.289 1.475-28.922 13.416-51.346 33.646-63.36zM455.576 616.003c-3.523-19.291-12.843-33.914-26.953-42.295-7.582-4.504-16.25-6.888-25.058-6.888s-17.487 2.383-25.070 6.888c-14.117 8.393-23.741 23.723-27.093 43.173l-0.798 4.608 4.669 0.030c13.074 0.085 25.99 4.547 36.382 12.568 0.975 0.744 1.908 1.518 2.822 2.316l2.7 2.359 2.609-2.456c13.854-13.032 32.859-18.859 51.224-15.671l5.595 0.963-1.030-5.595zM417.755 680.296l0.811 4.62 4.419-1.573c20.821-7.381 33.225-24.046 34.036-45.72l0.11-4.328-2.962-0.829c-4.285-1.201-8.704-1.81-13.117-1.81-12.763 0-24.978 5.010-34.395 14.11l-2.359 2.28 1.786 2.743c5.73 8.765 9.661 19.029 11.672 30.507zM350.068 636.44c0.012 0.396 0.226 4.456 0.414 6.022 3.535 29.263 28.94 43.453 52.547 44.532l4.907 0.226-0.823-4.846c-2.109-12.471-6.68-23.052-13.605-31.445l-0.549-0.634c-2.499-2.938-5.132-5.449-7.942-7.619-8.606-6.644-19.31-10.295-30.129-10.295l-4.919 0.085 0.098 3.974z" />
<glyph unicode="&#xe93e;" glyph-name="money" d="M902.758 329.37c-10.615 35.106-1.519 89.822-4.557 132.506-2.935 22.733 23.279 16.333 27.409 32-14.746 59.904-28.791 120.508-41.148 182.784-51.371 8.021-85.76 33.041-114.227 63.966-172.919-35.789-341.453-75.947-511.829-114.227-9.609-5.649-2.953-27.511-13.722-32-47.189 0-94.43 0-141.653 0-2.321 94.601 105.131 86.409 205.653 109.687 158.822 36.727 382.822 86.528 525.551 118.818 109.227 24.678 107.691-107.435 132.506-214.801 7.765-33.502 14.848-70.622 22.852-105.097 10.991-47.138 30.191-97.519 9.131-132.506-16.606-27.648-64.529-28.723-95.966-41.131zM637.713 598.972c-45.739-10.633-111.223-1.536-164.523-4.574 27.972 43.947 130.048 39.373 164.523 4.574zM71.049 557.858c43.947 13.090 144.026 4.574 205.636 4.574 144.811 0 226.082 0 392.994 0 62.942 0 157.355 2.594 178.244-18.278 35.601-35.635 18.278-165.82 18.278-228.489 0-84.651 16.981-192.734-18.278-228.489-27.085-27.426-118.426-18.261-196.489-18.261-161.929 0-263.39 0-420.454 0-61.235 0-166.588-7.441-191.949 18.261-35.908 36.386-18.261 241.937-18.261 329.028 0.017 64.58-11.145 123.341 50.278 141.653zM176.145 498.415c0.188-6.246-2.133-10.035-4.574-13.687-7.322-24.695-28.109-35.874-41.114-54.852-14.78-8.055-37.769-7.919-45.705-22.801 0-62.447 0-124.945 0-187.392 19.098-12.527 38.468-13.978 54.818-27.409 19.746-16.162 24.166-44.442 45.705-59.409 173.653 0 347.324 0 520.977 0 16.35 22.153 23.057 47.428 45.705 64 15.514 11.298 38.246 9.404 50.227 27.409 0 62.447 0 124.894 0 187.358-18.364 9.267-35.567 11.947-50.227 22.818-22.357 16.64-28.331 46.643-50.278 63.983-175.172-0.017-350.362-0.017-525.534-0.017zM413.781 429.875c73.694 16.026 132.386-29.372 146.261-73.079 55.228-174.199-214.204-220.535-237.653-63.983-10.086 67.396 24.166 122.487 91.392 137.062z" />
<glyph unicode="&#x1f570;" glyph-name="furniture" d="M392.576 568.986c2.406 2.995 3.123 7.206 2.086 11.866l-27.802 122.586c-2.624 11.546-15.309 21.683-27.149 21.683h-92.288c-11.853 0-24.538-10.138-27.149-21.683l-27.802-122.586c-1.050-4.659-0.307-8.858 2.074-11.878 2.394-2.982 6.349-4.634 11.11-4.634h175.821c4.762 0 8.704 1.651 11.098 4.646v0zM333.926 194.253h-28.672v346.701h-23.386v-346.701h-28.672c-6.451 0-11.699-5.235-11.699-11.699 0-6.451 5.235-11.674 11.699-11.674h80.73c6.451 0 11.699 5.222 11.699 11.674 0 6.464-5.248 11.699-11.699 11.699v0zM740.685 170.88c-10.47 0-18.982 8.525-18.982 18.982v18.97h18.982c30.182 0 37.875 10.278 37.875 10.278v-29.248c0-10.458-8.525-18.982-18.88-18.982h-18.995zM418.189 170.88c-10.445 0-18.982 8.525-18.982 18.982v29.248c0 0 7.795-10.278 37.978-10.278h18.982v-18.97c0-10.458-8.538-18.982-18.982-18.982h-18.995zM832 370.099c0 24.154-19.725 43.789-43.891 43.789-18.803 0-34.739-11.853-41.037-28.531l-20.749-46.592c-1.562 0.922-64.435 20.749-136.23 20.749-71.68 0-137.165-19.917-138.726-20.941l-19.725 43.814c-5.299 18.163-21.952 31.488-41.869 31.488-24.256 0-43.917-19.635-43.917-43.891 0-20.096 13.734-36.966 32.243-42.048l8.154-69.837c8.512-29.542 50.931-30.272 50.931-30.272h303.501c0 0 42.33 0.742 50.931 30.374l8.166 69.734c18.419 5.107 32.218 21.965 32.218 42.163v0zM389.773 436.672c28.71 0 54.464-18.906 63.245-46.208l9.536-21.376c18.611 6.746 85.402 13.12 127.539 13.12 41.037 0 106.88-5.926 125.133-12.582l10.829 24.435c9.907 25.562 34.714 42.611 62.054 42.611 2.035 0 3.891-0.358 5.926-0.55 0 0.102 0 0.192 0 0.358 0 50.381-40.845 91.238-91.328 91.238h-227.533c-50.47 0-91.328-40.858-91.328-91.238 0-0.179 0-0.269 0-0.358 2.035 0.102 3.878 0.55 5.926 0.55v0z" />
</font>
</defs>
</svg>
