<svg xmlns="http://www.w3.org/2000/svg" width="209.593" height="150.073" viewBox="0 0 209.593 150.073">
  <g id="Group_51" data-name="Group 51" transform="translate(-326.34 -363.871)">
    <path id="Path_178" data-name="Path 178" d="M3.34,180.944v-8.9Q22.926,160.6,33.354,145.461t12.209-29.633q-18.06-2.8-27.98-15.007t-9.92-26.2q0-17.551,12.845-30.65t31.922-13.1q22.129,0,34.212,15.9A57.581,57.581,0,0,1,98.725,82.506q0,18.314-9.666,38.408t-30.9,36.5Q36.915,173.822,3.34,180.944Zm114.208,0v-8.9q20.094-11.955,30.269-26.962t11.446-29.252q-18.06-2.8-27.853-15.007t-9.793-26.2A43.425,43.425,0,0,1,127.341,53a42.481,42.481,0,0,1,16.025-16.152,44.062,44.062,0,0,1,22.511-5.977q15.516,0,26.072,7.885a49.06,49.06,0,0,1,15.77,19.586,58.766,58.766,0,0,1,5.214,24.164q0,18.314-9.666,38.408T172.49,157.288Q151.378,173.568,117.548,180.944Z" transform="translate(323 333)" fill="#f2f2f2"/>
  </g>
</svg>
